# xmcd
#
# Track frame offsets:
# 225
# 21246
# 33953
# 42448
# 58122
# 60970
# 77054
# 91263
# 92605
# 102580
# 104225
# 113879
# 125522
# 136788
# 139514
# 143088
# 159918
# 165909
# 167285
# 176508
# 178870
# 196585
# 208931
# 222646
# 229712
# 243454
#
# Disc length: 3319 seconds
#
#
# Revision: 2
# Processed by: cddbd v1.5.2PL0 Copyright (c) Steve Scherf et al.
# Submitted via: FreeRIP 2.96 
#
DISCID=630cf41a
DTITLE=Wabi Danek - Valassky drtivy styl - Valassky drtivy styl
DYEAR=1999
DGENRE=Folk
TTITLE0=Tonka
TTITLE1=Shantytown
TTITLE2=Valcisko and Porubsky valcik
TTITLE3=Ranni blues
TTITLE4=Versotepani Plzen
TTITLE5=Pisen, co me ucil listopad
TTITLE6=Vikend
TTITLE7=Versotepani Klenci
TTITLE8=Motorovi trampi
TTITLE9=Versotepani Beroun
TTITLE10=Simonovi
TTITLE11=Indianska
TTITLE12=Valassky drtivy styl
TTITLE13=Versotepani Litovel
TTITLE14=Versotepani Castolovice
TTITLE15=Franta ma pera
TTITLE16=Pisen proti
TTITLE17=Versotepani Praha
TTITLE18=Tece voda, tece
TTITLE19=Versotepani Praha-Kbely
TTITLE20=Outsider waltz
TTITLE21=Zelva
TTITLE22=Kdyz jsem odchazel
TTITLE23=Indianska (radio verze)
TTITLE24=Vikend (radio verze)
TTITLE25=Pisen proti (radio verze)
EXTD=YEAR: 1999
EXTT0=
EXTT1=
EXTT2=
EXTT3=
EXTT4=
EXTT5=
EXTT6=
EXTT7=
EXTT8=
EXTT9=
EXTT10=
EXTT11=
EXTT12=
EXTT13=
EXTT14=
EXTT15=
EXTT16=
EXTT17=
EXTT18=
EXTT19=
EXTT20=
EXTT21=
EXTT22=
EXTT23=
EXTT24=
EXTT25=
PLAYORDER=
